<?xml version="1.0" standalone="no"?>
<!DOCTYPE svg PUBLIC "-//W3C//DTD SVG 20010904//EN"
 "http://www.w3.org/TR/2001/REC-SVG-20010904/DTD/svg10.dtd">
<svg version="1.0" xmlns="http://www.w3.org/2000/svg"
 width="800.000000pt" height="600.000000pt" viewBox="0 0 800.000000 600.000000"
 preserveAspectRatio="xMidYMid meet">
<metadata>
Created by potrace 1.11, written by Peter Selinger 2001-2013
</metadata>
<g transform="translate(0.000000,600.000000) scale(0.100000,-0.100000)"
fill="#000000" stroke="none">
<path d="M3620 5657 c0 -16 74 -87 91 -87 17 0 8 12 -43 59 -30 27 -48 38 -48
28z"/>
<path d="M3772 5648 c7 -20 106 -65 183 -84 106 -25 215 -78 215 -103 0 -12 5
-21 10 -21 16 0 11 36 -7 57 -23 26 -118 66 -216 93 -44 11 -101 32 -128 45
-55 28 -62 30 -57 13z"/>
<path d="M3523 5596 c6 -17 68 -56 90 -56 28 0 14 13 -46 44 -26 13 -46 19
-44 12z"/>
<path d="M4250 5588 c0 -14 30 -121 35 -126 14 -15 18 14 6 56 -10 39 -41 91
-41 70z"/>
<path d="M6455 5518 c-36 -19 -65 -51 -65 -70 0 -25 13 -23 25 5 6 12 29 31
52 42 23 11 42 23 43 28 0 11 -32 8 -55 -5z"/>
<path d="M4342 5488 c-5 -19 -5 -34 0 -37 12 -4 15 -1 23 37 4 20 3 32 -4 32
-6 0 -14 -15 -19 -32z"/>
<path d="M6050 5513 c1 -13 100 -86 100 -74 0 6 -9 20 -19 30 -24 24 -81 55
-81 44z"/>
<path d="M6150 5516 c0 -14 41 -76 51 -76 5 0 9 4 9 10 0 12 -59 78 -60 66z"/>
<path d="M6230 5513 c1 -27 28 -107 37 -110 12 -4 0 65 -18 98 -10 19 -19 25
-19 12z"/>
<path d="M6316 5479 c-9 -47 -8 -75 3 -63 15 14 26 94 14 94 -6 0 -13 -14 -17
-31z"/>
<path d="M3320 5483 c-51 -9 -90 -25 -90 -38 0 -12 7 -12 43 1 23 8 88 18 145
21 56 3 102 10 102 15 0 8 -152 9 -200 1z"/>
<path d="M3984 5477 c70 -45 115 -110 116 -169 0 -15 5 -30 10 -33 16 -10 12
74 -6 111 -21 43 -91 104 -118 103 -20 0 -20 -1 -2 -12z"/>
<path d="M6536 5470 c-49 -19 -91 -50 -69 -50 6 0 30 9 54 20 24 11 59 20 77
20 22 0 32 5 32 15 0 20 -34 18 -94 -5z"/>
<path d="M5916 5469 c-83 -12 -101 -34 -21 -25 133 15 155 19 155 27 0 11 -53
10 -134 -2z"/>
<path d="M6630 5433 c-14 -9 -28 -22 -32 -27 -17 -24 -6 -24 28 -1 20 14 45
25 55 25 10 0 21 5 24 10 10 17 -49 11 -75 -7z"/>
<path d="M3267 5400 c-51 -19 -133 -76 -141 -97 -9 -21 14 -15 48 14 35 30
143 83 168 83 9 0 20 5 23 10 10 16 -46 11 -98 -10z"/>
<path d="M4420 5401 c0 -5 24 -11 54 -13 54 -4 83 -19 158 -80 38 -30 48 -14
13 22 -43 45 -121 80 -177 80 -26 0 -48 -4 -48 -9z"/>
<path d="M5801 5396 c-19 -7 -37 -18 -39 -24 -5 -15 -3 -15 48 3 23 8 55 15
71 15 15 0 31 5 34 10 9 14 -72 11 -114 -4z"/>
<path d="M6706 5375 c-26 -28 -33 -45 -18 -45 11 0 55 60 48 67 -2 3 -16 -7
-30 -22z"/>
<path d="M4001 5375 c2 -5 13 -34 24 -62 19 -52 35 -68 35 -37 0 22 -29 81
-48 96 -8 7 -13 9 -11 3z"/>
<path d="M4233 5337 c-40 -15 -72 -44 -33 -31 14 5 53 9 88 9 64 -1 77 7 43
25 -25 13 -57 12 -98 -3z"/>
<path d="M6788 5306 c-29 -10 -38 -26 -15 -26 16 0 54 27 47 32 -3 3 -17 0
-32 -6z"/>
<path d="M4560 5295 c0 -3 26 -18 58 -34 32 -16 77 -47 100 -70 40 -39 62 -51
62 -33 0 16 -87 91 -134 116 -44 24 -86 34 -86 21z"/>
<path d="M5638 5286 c-32 -7 -61 -15 -64 -19 -15 -15 8 -19 48 -9 24 6 55 13
71 17 15 3 27 10 27 15 0 12 -9 12 -82 -4z"/>
<path d="M3137 5180 c-41 -39 -91 -77 -111 -85 -39 -17 -50 -41 -13 -30 41 13
81 43 152 114 90 92 70 92 -28 1z"/>
<path d="M3944 5205 c9 -13 20 -42 24 -62 7 -33 11 -38 33 -35 30 4 59 37 59
68 0 36 -13 29 -32 -16 -18 -44 -38 -53 -38 -17 0 27 -35 87 -51 87 -7 0 -5
-9 5 -25z"/>
<path d="M3780 5212 c0 -12 24 -22 56 -22 18 0 31 -10 46 -35 11 -20 22 -34
25 -32 8 9 -9 56 -26 71 -20 18 -101 33 -101 18z"/>
<path d="M6870 5210 c-8 -5 -12 -11 -10 -13 11 -9 130 -16 130 -8 0 18 -98 35
-120 21z"/>
<path d="M1591 5183 c-13 -17 -46 -41 -74 -54 -63 -28 -129 -70 -123 -77 11
-10 194 88 210 113 25 38 14 54 -13 18z"/>
<path d="M5533 5170 c-64 -32 -97 -62 -91 -80 2 -7 21 2 46 23 23 19 62 43 87
53 25 9 45 21 45 25 0 16 -26 10 -87 -21z"/>
<path d="M1650 5154 c-37 -25 -100 -87 -100 -98 0 -5 15 6 33 26 17 19 51 45
75 57 23 12 42 24 42 26 0 10 -27 4 -50 -11z"/>
<path d="M4131 5140 c-35 -22 -37 -39 -3 -21 29 15 58 14 94 -5 38 -20 60 -4
26 18 -42 28 -80 30 -117 8z"/>
<path d="M1045 5127 c-63 -35 -108 -121 -75 -142 6 -3 10 4 10 17 0 43 53 102
104 116 16 4 31 13 34 20 6 19 -29 14 -73 -11z"/>
<path d="M1257 5124 c-113 -20 -187 -63 -187 -108 1 -19 3 -18 21 7 12 15 34
34 51 43 36 19 164 44 223 44 26 0 47 6 55 15 11 13 6 15 -36 14 -27 0 -84 -7
-127 -15z"/>
<path d="M3645 5114 c-49 -13 -120 -30 -157 -36 -38 -7 -68 -16 -68 -20 0 -19
64 -11 183 23 56 16 136 32 177 36 50 4 68 9 55 14 -36 14 -99 8 -190 -17z"/>
<path d="M6940 5135 c0 -8 66 -35 87 -35 15 0 15 2 3 14 -15 14 -90 32 -90 21z"/>
<path d="M1745 5109 c-78 -19 -55 -26 64 -21 101 4 133 1 209 -18 94 -23 133
-24 140 -2 2 8 -9 12 -35 12 -21 0 -72 9 -113 20 -80 21 -196 25 -265 9z"/>
<path d="M3090 5059 c-25 -22 -72 -54 -105 -71 -33 -17 -55 -33 -48 -35 23 -8
119 47 168 97 59 60 49 66 -15 9z"/>
<path d="M4781 5015 c41 -41 78 -84 83 -95 11 -25 26 -26 26 -3 0 20 -152 173
-171 173 -7 0 21 -34 62 -75z"/>
<path d="M4890 5082 c0 -12 75 -128 89 -136 21 -13 11 12 -30 73 -40 60 -59
80 -59 63z"/>
<path d="M5450 5026 c-25 -18 -59 -49 -77 -67 -33 -36 -103 -138 -103 -151 0
-22 21 -2 54 51 20 33 71 92 114 130 81 75 87 93 12 37z"/>
<path d="M7000 5051 c0 -11 69 -35 77 -27 3 3 -10 13 -30 21 -42 18 -47 18
-47 6z"/>
<path d="M4215 5040 c11 -4 40 -15 65 -24 67 -24 135 -79 173 -138 44 -69 64
-88 90 -88 21 1 20 2 -6 21 -15 12 -39 41 -53 65 -53 91 -174 175 -250 173
-30 0 -35 -2 -19 -9z"/>
<path d="M3400 5011 c-25 -9 -65 -30 -90 -46 -54 -34 -170 -134 -170 -146 0
-20 23 -6 83 49 35 31 92 73 126 92 59 33 112 69 101 69 -3 0 -25 -8 -50 -18z"/>
<path d="M2080 4990 c-24 -7 -24 -7 10 -14 56 -11 213 -3 218 12 3 9 -21 12
-100 11 -56 -1 -114 -4 -128 -9z"/>
<path d="M912 4965 c-57 -25 -101 -66 -163 -151 -33 -46 -68 -88 -77 -93 -9
-5 -13 -13 -9 -17 12 -13 39 8 77 61 56 78 132 156 172 176 21 11 38 24 38 29
0 12 2 12 -38 -5z"/>
<path d="M6571 4936 c-13 -54 -14 -76 -2 -76 5 0 12 21 16 46 3 26 9 53 12 60
3 8 1 14 -5 14 -5 0 -15 -20 -21 -44z"/>
<path d="M7075 4910 c33 -34 62 -55 64 -48 4 12 -96 107 -114 108 -5 0 17 -27
50 -60z"/>
<path d="M3048 4953 c-10 -2 -18 -9 -18 -14 0 -13 13 -11 36 6 19 14 14 17
-18 8z"/>
<path d="M6458 4918 c-14 -18 -49 -57 -78 -85 -33 -33 -47 -53 -37 -53 14 0
120 110 140 147 17 29 -1 23 -25 -9z"/>
<path d="M6530 4941 c0 -4 -11 -25 -25 -46 -26 -38 -26 -61 0 -34 20 20 47 89
35 89 -5 0 -10 -4 -10 -9z"/>
<path d="M6622 4908 c-19 -43 -20 -60 -2 -42 16 16 41 84 31 84 -6 0 -19 -19
-29 -42z"/>
<path d="M4660 4936 c0 -4 9 -20 20 -36 11 -15 30 -50 41 -76 15 -34 23 -44
26 -31 6 23 -31 98 -62 127 -14 13 -25 20 -25 16z"/>
<path d="M6350 4899 c-7 -17 -24 -47 -37 -66 -23 -35 -25 -52 -4 -38 12 7 44
67 61 110 14 36 -5 31 -20 -6z"/>
<path d="M6262 4888 c-25 -41 -121 -133 -129 -124 -3 3 4 28 16 55 34 80 23
92 -15 18 -33 -65 -34 -70 -17 -82 14 -11 22 -11 43 0 46 24 135 134 128 157
-2 6 -14 -4 -26 -24z"/>
<path d="M3048 4864 c-26 -18 -53 -34 -60 -37 -7 -2 -10 -8 -6 -12 11 -12 62
13 94 46 38 40 28 41 -28 3z"/>
<path d="M2200 4885 c0 -15 217 -81 229 -69 11 11 -22 25 -113 48 -101 27
-116 29 -116 21z"/>
<path d="M5968 4798 c-77 -83 -93 -109 -41 -68 48 37 138 150 121 150 -2 0
-38 -37 -80 -82z"/>
<path d="M6058 4839 c-18 -25 -23 -39 -14 -39 13 0 54 66 46 74 -3 2 -17 -14
-32 -35z"/>
<path d="M3208 4826 c-20 -23 -61 -57 -92 -76 -56 -35 -68 -50 -42 -50 24 0
139 92 159 128 27 46 18 45 -25 -2z"/>
<path d="M4849 4815 c14 -30 30 -55 35 -55 12 0 -2 51 -23 79 -32 45 -38 32
-12 -24z"/>
<path d="M6707 4856 c-3 -7 3 -27 13 -43 26 -43 99 -118 107 -109 4 3 -10 23
-30 44 -20 21 -37 44 -37 50 0 19 -29 72 -39 72 -5 0 -11 -6 -14 -14z"/>
<path d="M5857 4824 c-5 -18 -21 -53 -38 -79 -24 -37 -26 -46 -12 -43 24 4 65
89 61 124 l-4 29 -7 -31z"/>
<path d="M5316 4788 c-32 -56 -76 -188 -76 -229 0 -48 15 -25 34 55 13 55 45
132 84 209 2 4 -1 7 -7 7 -5 0 -21 -19 -35 -42z"/>
<path d="M4726 4694 c28 -59 59 -111 69 -116 9 -6 16 -6 13 -2 -2 5 -21 45
-41 88 -39 82 -73 136 -85 136 -4 0 16 -48 44 -106z"/>
<path d="M4942 4781 c2 -14 9 -26 16 -29 17 -5 15 10 -3 34 -15 18 -15 18 -13
-5z"/>
<path d="M5638 4794 c-5 -4 -8 -19 -8 -33 -1 -14 -7 -43 -14 -64 -10 -27 -11
-37 -2 -34 16 5 38 76 34 110 -2 16 -6 25 -10 21z"/>
<path d="M5771 4754 c-18 -25 -30 -48 -27 -51 5 -6 66 76 66 89 0 14 -5 9 -39
-38z"/>
<path d="M7100 4791 c0 -11 40 -41 54 -41 5 0 -1 11 -14 25 -24 26 -40 32 -40
16z"/>
<path d="M2374 4765 c16 -13 49 -29 73 -36 25 -7 60 -23 79 -36 41 -27 44 -28
44 -9 0 19 -32 38 -110 65 -36 13 -69 27 -74 32 -6 5 -17 9 -25 9 -11 -1 -6
-9 13 -25z"/>
<path d="M2993 4779 c-29 -9 -46 -29 -24 -29 19 0 71 23 71 31 0 11 -4 10 -47
-2z"/>
<path d="M4814 4778 c2 -7 10 -30 17 -50 7 -21 16 -38 21 -38 14 0 9 32 -13
66 -20 33 -36 46 -25 22z"/>
<path d="M769 4744 c-47 -51 -121 -108 -142 -109 -23 -2 -38 -35 -15 -35 7 0
28 9 46 20 17 11 32 18 32 16 0 -2 -20 -46 -44 -97 -25 -52 -48 -106 -51 -121
-12 -47 11 -31 30 20 23 63 120 248 152 290 31 41 25 52 -8 16z"/>
<path d="M4490 4764 c0 -3 18 -27 41 -52 45 -51 74 -100 65 -110 -3 -3 -16 4
-29 16 -38 36 -41 25 -5 -20 19 -24 42 -55 51 -70 26 -42 35 -34 26 21 -8 55
-18 77 -61 137 -27 39 -88 92 -88 78z"/>
<path d="M5571 4747 c-25 -31 -70 -102 -66 -106 8 -8 35 21 60 66 25 46 29 66
6 40z"/>
<path d="M3151 4679 c-11 -24 -32 -105 -47 -179 -25 -119 -28 -158 -30 -339
-1 -177 -3 -206 -18 -216 -9 -7 -16 -17 -16 -22 0 -6 -13 -13 -29 -16 -69 -14
-77 -167 -18 -342 20 -60 37 -117 37 -126 0 -32 59 -107 110 -140 46 -30 57
-44 92 -119 21 -47 52 -101 68 -121 51 -64 68 -110 100 -269 39 -198 96 -379
157 -500 41 -81 58 -103 117 -153 94 -78 194 -127 259 -127 111 0 241 62 343
164 42 42 94 123 94 146 0 7 16 34 35 60 19 26 58 105 86 176 l52 127 8 221
c5 122 13 239 18 261 6 32 50 169 58 184 1 1 19 4 40 5 22 1 54 11 73 21 61
37 86 81 132 235 39 132 43 155 43 253 l0 109 -30 24 c-19 15 -43 24 -67 24
-20 0 -40 5 -43 10 -3 6 -11 10 -16 10 -6 0 -7 -5 -4 -11 12 -18 -27 -51 -53
-44 -21 5 -22 4 -12 -15 11 -20 11 -20 58 5 59 31 86 32 117 0 23 -22 25 -32
25 -117 0 -94 -5 -119 -59 -303 -26 -89 -34 -104 -72 -138 -33 -29 -50 -37
-73 -35 -53 5 -46 34 28 103 36 34 73 78 81 98 17 41 20 105 5 127 -7 11 -10
2 -10 -33 0 -26 -6 -62 -14 -80 -14 -34 -112 -131 -120 -118 -3 4 2 52 10 106
7 55 14 103 14 108 0 4 6 7 13 7 14 0 37 -45 37 -72 0 -10 5 -18 10 -18 15 0
12 43 -6 79 -33 66 15 222 80 262 30 18 30 19 6 19 -14 0 -29 -4 -35 -8 -19
-13 -56 -73 -70 -110 -7 -20 -17 -36 -23 -35 -10 2 -22 -54 -47 -222 -34 -228
-62 -327 -134 -464 -52 -99 -270 -283 -432 -364 -172 -86 -292 -87 -467 -4
-39 19 -236 218 -280 283 -83 126 -116 206 -162 404 -44 190 -54 266 -75 600
-11 165 31 521 74 634 19 47 3 43 -18 -5z m-76 -829 c8 -16 15 -37 15 -46 0
-13 -5 -11 -25 10 -26 28 -40 32 -50 16 -3 -5 1 -10 9 -10 33 0 47 -53 40
-157 -6 -89 -5 -103 15 -141 12 -24 32 -47 45 -51 17 -7 25 -22 35 -68 7 -32
15 -66 17 -75 9 -29 -18 -21 -62 20 -37 34 -45 50 -87 184 -39 120 -47 160
-47 221 0 100 11 127 49 127 24 0 34 -7 46 -30z m40 -254 c9 -48 14 -90 11
-93 -11 -12 -40 54 -44 103 -4 48 3 93 12 83 2 -2 11 -44 21 -93z m1407 -722
l-8 -199 -43 -108 c-25 -60 -72 -149 -107 -203 -35 -53 -64 -102 -64 -111 0
-20 -84 -101 -147 -141 -102 -65 -239 -89 -319 -56 -52 21 -175 116 -209 160
-66 86 -148 315 -196 544 -38 182 -46 176 76 67 139 -125 178 -141 330 -142
82 0 124 5 165 19 124 42 315 172 448 305 40 40 75 71 78 69 2 -3 0 -94 -4
-204z"/>
<path d="M6770 4694 c14 -35 71 -117 77 -110 3 3 -2 17 -11 31 -10 15 -15 32
-13 40 5 12 -41 65 -56 65 -3 0 -2 -12 3 -26z"/>
<path d="M7110 4712 c0 -12 49 -56 55 -50 7 7 -34 58 -46 58 -5 0 -9 -4 -9 -8z"/>
<path d="M4811 4650 c24 -33 45 -58 47 -56 8 9 -11 49 -40 82 -48 55 -52 39
-7 -26z"/>
<path d="M4920 4682 c0 -21 26 -60 34 -51 8 8 -14 69 -25 69 -5 0 -9 -8 -9
-18z"/>
<path d="M2488 4593 c15 -27 47 -91 71 -143 47 -100 71 -138 71 -108 0 23 -97
227 -126 265 -37 49 -47 40 -16 -14z"/>
<path d="M2998 4592 c-23 -22 -40 -43 -36 -47 4 -4 26 11 50 33 23 22 40 43
36 47 -4 4 -26 -11 -50 -33z"/>
<path d="M5490 4589 c-11 -19 -31 -68 -44 -109 -14 -41 -38 -109 -55 -150 -37
-90 -38 -105 -6 -66 l23 29 6 -34 c15 -92 39 -349 33 -349 -13 0 -82 33 -93
45 -8 7 -14 21 -14 31 0 13 -3 14 -15 4 -8 -7 -15 -22 -15 -33 0 -11 -10 -40
-21 -64 -29 -60 -22 -120 22 -195 19 -31 59 -103 89 -159 64 -120 106 -169
144 -169 23 0 30 -8 47 -47 114 -270 295 -519 425 -586 55 -28 93 -67 129
-131 41 -74 43 -106 15 -224 -37 -155 -21 -249 61 -348 87 -106 216 -242 260
-276 73 -54 94 -56 191 -13 46 20 106 45 135 55 66 23 320 151 393 197 121 77
308 223 400 313 129 126 218 209 264 243 37 28 37 29 19 49 -22 25 -229 124
-350 169 -49 17 -130 56 -181 86 -88 52 -94 57 -126 121 -35 71 -62 152 -77
236 -52 296 -61 392 -37 368 45 -45 123 30 153 146 23 88 50 177 69 227 22 57
20 160 -4 213 -21 47 -48 62 -113 62 -30 0 -38 3 -27 10 18 11 7 23 -37 38
-31 10 -48 0 -19 -11 7 -3 14 -17 14 -32 0 -24 -3 -26 -29 -21 -28 5 -42 -8
-17 -16 7 -3 5 -13 -7 -31 -26 -41 -13 -42 29 -3 63 57 144 57 182 -2 25 -38
30 -146 9 -202 -9 -25 -28 -83 -41 -129 -39 -139 -53 -175 -84 -208 -36 -39
-56 -42 -72 -8 -6 14 -15 25 -20 25 -4 0 -8 11 -8 25 0 28 32 65 55 65 18 0
55 57 80 123 29 76 11 65 -28 -17 -29 -62 -42 -78 -70 -90 -19 -7 -38 -19 -42
-26 -27 -44 -20 -157 26 -410 43 -237 84 -359 137 -406 49 -44 193 -124 277
-153 46 -17 114 -45 151 -64 38 -19 80 -38 94 -42 14 -4 39 -16 57 -27 l32
-19 -87 -85 c-48 -46 -132 -129 -187 -183 -92 -90 -269 -227 -405 -313 -62
-40 -341 -181 -380 -193 -14 -4 -66 -25 -117 -46 -51 -22 -102 -39 -115 -39
-39 0 -93 45 -218 183 -141 154 -190 237 -190 315 0 48 33 208 45 220 7 8 7 9
65 -133 30 -71 61 -141 69 -154 33 -51 18 0 -35 129 -31 74 -68 166 -81 205
-14 38 -31 74 -37 80 -13 10 -56 82 -56 92 0 3 39 2 88 -1 105 -9 162 3 255
49 118 60 275 202 383 345 26 36 60 79 75 95 50 55 126 215 102 215 -5 0 -22
-31 -40 -68 -41 -86 -205 -303 -289 -383 -87 -82 -203 -166 -274 -199 -72 -33
-79 -34 -184 -32 -124 2 -150 12 -274 102 -91 66 -224 243 -302 400 -105 212
-187 564 -220 945 -11 123 -11 133 9 189 23 65 21 84 -3 39 -14 -25 -15 -26
-16 -6 0 26 46 176 67 216 21 41 8 45 -17 6z m-80 -690 l48 -21 12 -66 c10
-53 55 -259 87 -399 12 -51 -55 -8 -102 66 -13 21 -53 95 -89 165 -55 105 -66
135 -66 175 0 34 6 56 21 75 25 31 27 32 89 5z"/>
<path d="M5345 3860 c-3 -5 1 -10 9 -10 9 0 34 -19 56 -41 32 -33 40 -38 40
-22 0 21 -30 53 -67 72 -27 14 -30 14 -38 1z"/>
<path d="M5438 3727 c-18 -43 5 -137 32 -137 14 0 12 14 -2 28 -7 7 -15 39
-18 70 -3 39 -7 51 -12 39z"/>
<path d="M5265 4529 c-25 -57 -47 -152 -31 -137 4 3 20 42 36 85 15 43 31 86
35 96 4 9 3 17 -3 17 -5 0 -22 -28 -37 -61z"/>
<path d="M7129 4573 c23 -39 90 -108 91 -92 0 18 -76 109 -91 109 -6 0 -6 -7
0 -17z"/>
<path d="M4723 4567 c4 -13 65 -57 78 -57 22 0 5 21 -37 44 -25 14 -44 20 -41
13z"/>
<path d="M1043 4499 c-37 -74 -40 -87 -17 -68 24 20 56 88 52 112 -2 16 -11 5
-35 -44z"/>
<path d="M4910 4541 c0 -12 5 -21 10 -21 6 0 10 6 10 14 0 8 -4 18 -10 21 -5
3 -10 -3 -10 -14z"/>
<path d="M6838 4523 c43 -54 92 -99 92 -84 0 14 -99 121 -112 121 -5 0 4 -17
20 -37z"/>
<path d="M981 4500 c-17 -57 -35 -63 -26 -9 9 55 -6 44 -33 -26 -11 -27 -23
-58 -27 -67 -11 -28 14 -22 26 6 8 16 17 22 29 19 21 -5 43 29 55 85 10 46 -9
40 -24 -8z"/>
<path d="M3002 4517 c-22 -23 -31 -54 -12 -42 16 10 52 65 42 65 -4 0 -18 -10
-30 -23z"/>
<path d="M4355 4500 c34 -35 21 -39 -30 -9 -49 29 -56 17 -8 -12 l38 -24 -28
-3 c-17 -2 -37 4 -48 13 -11 11 -28 16 -44 13 -14 -3 -28 -2 -30 3 -7 10 -111
9 -165 -2 -28 -6 -57 -22 -77 -42 -39 -37 -43 -54 -8 -31 24 16 25 16 19 -2
-6 -15 0 -13 23 9 35 32 66 38 38 7 -24 -27 -13 -25 33 4 20 13 48 27 62 31
24 6 24 5 -5 -19 -33 -28 -31 -31 11 -16 17 7 30 7 38 1 8 -7 26 -7 52 0 75
21 184 -8 258 -70 19 -16 20 -12 4 26 -16 37 -52 79 -103 121 -50 40 -68 42
-30 2z"/>
<path d="M1120 4493 c1 -43 53 -167 72 -171 13 -2 9 13 -18 80 -19 46 -34 91
-34 101 0 9 -4 17 -10 17 -5 0 -10 -12 -10 -27z"/>
<path d="M2056 4498 c14 -47 57 -123 62 -109 5 16 -48 131 -61 131 -4 0 -5
-10 -1 -22z"/>
<path d="M1995 4461 c22 -64 45 -101 61 -101 11 0 6 17 -23 70 -42 77 -60 91
-38 31z"/>
<path d="M1071 4451 c-25 -48 -25 -52 -6 -45 15 6 41 71 32 81 -3 3 -15 -13
-26 -36z"/>
<path d="M1500 4483 c0 -27 129 -180 130 -154 0 7 -23 41 -51 74 -28 34 -54
67 -56 74 -5 14 -23 18 -23 6z"/>
<path d="M4570 4487 c0 -20 75 -141 78 -125 2 9 -4 29 -12 45 -18 34 -65 91
-66 80z"/>
<path d="M1452 4408 c2 -42 7 -72 13 -71 15 3 18 29 10 89 -10 80 -26 66 -23
-18z"/>
<path d="M4730 4473 c0 -17 58 -78 67 -70 4 4 -10 24 -30 45 -20 20 -37 31
-37 25z"/>
<path d="M4867 4445 c9 -19 20 -35 25 -35 11 0 10 7 -7 40 -22 42 -38 37 -18
-5z"/>
<path d="M3011 4439 c-22 -36 -28 -64 -11 -54 13 8 42 76 36 83 -3 2 -14 -11
-25 -29z"/>
<path d="M7159 4452 c13 -25 40 -46 48 -38 7 7 -36 56 -49 56 -5 0 -4 -8 1
-18z"/>
<path d="M1357 4454 c-6 -6 -1 -72 9 -121 2 -13 9 -23 15 -23 7 0 8 22 4 68
-7 66 -15 88 -28 76z"/>
<path d="M1936 4438 c4 -13 13 -43 19 -68 7 -25 16 -43 21 -40 12 7 7 48 -13
93 -17 40 -39 52 -27 15z"/>
<path d="M663 4439 c-6 -8 -18 -28 -26 -45 -9 -17 -32 -53 -52 -79 -20 -26
-33 -50 -30 -53 16 -16 132 153 123 179 -2 7 -8 6 -15 -2z"/>
<path d="M3440 4436 c0 -10 -9 -16 -25 -16 -14 0 -25 -4 -25 -9 0 -13 -153
-18 -162 -6 -8 10 -72 -46 -90 -78 -13 -24 -3 -33 18 -16 76 63 173 84 277 60
21 -5 37 -5 37 0 0 15 67 10 80 -6 7 -8 16 -12 22 -9 5 3 15 0 23 -6 12 -10
16 -9 21 4 11 29 -58 86 -102 84 -10 0 -31 3 -46 7 -22 6 -28 4 -28 -9z"/>
<path d="M6891 4435 c-1 -5 15 -28 34 -50 19 -22 34 -35 34 -30 1 6 -15 28
-34 50 -19 22 -34 36 -34 30z"/>
<path d="M1610 4421 c0 -15 78 -96 85 -89 4 4 -10 27 -31 52 -37 44 -54 56
-54 37z"/>
<path d="M842 4373 c-11 -27 -26 -77 -33 -112 -9 -46 -17 -65 -30 -68 -14 -4
-22 -30 -39 -126 -17 -94 -27 -126 -43 -140 -20 -18 -21 -18 -29 3 -4 11 -11
58 -14 103 -7 81 -7 81 -20 47 l-12 -35 -1 50 c-1 28 8 85 18 128 12 50 15 77
7 74 -16 -5 -45 -110 -53 -189 -6 -64 -4 -69 15 -74 17 -5 21 -17 28 -77 5
-40 7 -105 5 -145 -3 -81 18 -160 70 -267 16 -33 40 -111 54 -174 15 -63 27
-117 29 -120 2 -3 -1 -68 -5 -143 -8 -127 -7 -143 14 -215 44 -151 119 -257
261 -367 127 -99 225 -148 305 -154 92 -6 154 25 275 137 52 47 135 120 186
161 52 41 132 119 179 172 101 113 139 175 242 396 l43 93 72 34 c83 40 117
79 151 172 12 35 41 97 63 139 43 82 50 126 24 163 -15 21 -22 23 -65 18 l-48
-6 5 42 c3 23 1 56 -5 72 -9 30 -9 30 -10 -10 -1 -22 -5 -56 -11 -75 -12 -43
0 -53 57 -46 35 5 44 2 53 -14 19 -36 10 -80 -34 -163 -24 -45 -51 -105 -61
-134 -18 -56 -72 -114 -128 -138 -33 -14 -52 -11 -41 7 11 18 44 152 44 181 0
16 -4 26 -10 22 -5 -3 -10 -19 -10 -35 0 -69 -105 -320 -184 -440 -20 -30 -36
-60 -36 -67 0 -47 -171 -251 -293 -349 -39 -33 -74 -61 -77 -64 -13 -13 -70
-50 -110 -70 -87 -45 -229 -25 -344 49 -28 17 -46 31 -42 31 5 0 -29 39 -75
88 -150 155 -243 281 -320 434 -75 150 -139 546 -120 739 14 131 22 161 48
183 20 17 28 41 43 131 10 61 26 127 34 147 18 43 19 48 7 48 -5 0 -18 -21
-29 -47z m-132 -555 c0 -46 3 -114 6 -153 4 -53 3 -66 -6 -53 -36 58 -51 191
-28 255 19 54 28 38 28 -49z m240 -835 c41 -59 102 -139 135 -178 34 -38 68
-79 77 -90 9 -11 28 -33 41 -50 14 -16 57 -52 96 -79 59 -40 84 -51 147 -61
41 -8 90 -11 108 -8 19 3 36 1 40 -5 8 -14 -57 -64 -118 -91 -114 -50 -221
-14 -418 141 -121 96 -184 187 -229 335 -18 57 -20 80 -13 175 l7 110 26 -46
c14 -25 60 -94 101 -153z"/>
<path d="M1180 4413 c0 -16 61 -113 70 -113 15 0 13 8 -21 66 -27 48 -49 69
-49 47z"/>
<path d="M1700 4410 c0 -16 87 -106 95 -98 4 3 -1 18 -10 32 -20 31 -85 81
-85 66z"/>
<path d="M1250 4403 c0 -17 43 -92 55 -97 22 -8 18 7 -12 58 -25 41 -43 57
-43 39z"/>
<path d="M1790 4405 c0 -4 11 -23 26 -42 14 -18 32 -49 40 -68 8 -19 19 -35
24 -35 17 0 11 25 -18 71 -29 44 -72 89 -72 74z"/>
<path d="M1880 4402 c0 -20 41 -102 51 -102 11 0 4 30 -17 72 -15 28 -34 45
-34 30z"/>
<path d="M2513 4399 c42 -97 59 -148 65 -196 4 -31 13 -58 20 -61 43 -14 -32
235 -80 264 -7 5 -9 2 -5 -7z"/>
<path d="M4846 4383 c4 -16 12 -37 17 -48 10 -17 12 -18 15 -3 3 16 -23 78
-33 78 -3 0 -2 -12 1 -27z"/>
<path d="M5264 4353 c-9 -32 -27 -80 -40 -107 -14 -27 -22 -52 -18 -55 12 -13
45 44 69 120 28 89 29 99 15 99 -5 0 -17 -26 -26 -57z"/>
<path d="M6980 4402 c0 -14 86 -82 102 -82 7 1 -5 17 -27 36 -47 42 -75 59
-75 46z"/>
<path d="M4756 4329 c19 -28 34 -55 34 -61 0 -5 4 -7 10 -3 13 8 -6 55 -38 88
-41 43 -44 32 -6 -24z"/>
<path d="M7175 4370 c3 -5 13 -10 21 -10 8 0 12 5 9 10 -3 6 -13 10 -21 10 -8
0 -12 -4 -9 -10z"/>
<path d="M2153 4321 c9 -43 45 -116 68 -137 24 -22 38 -10 16 14 -9 10 -30 48
-47 85 -32 71 -46 86 -37 38z"/>
<path d="M3017 4316 c-20 -45 -20 -46 -7 -46 13 0 32 48 27 69 -2 10 -10 1
-20 -23z"/>
<path d="M6590 4343 c0 -4 8 -16 18 -27 14 -16 11 -16 -17 4 -24 17 -33 19
-29 9 5 -13 -6 -16 -63 -17 -70 -2 -197 -25 -227 -41 -10 -5 -26 -19 -36 -30
-19 -21 -19 -21 3 -21 12 0 40 10 63 21 46 23 71 28 198 36 65 4 94 1 124 -11
21 -9 49 -16 62 -16 12 0 26 -4 29 -10 3 -5 11 -10 17 -10 6 0 3 9 -7 20 -10
11 -23 20 -29 20 -6 0 -16 8 -23 19 -12 19 -83 65 -83 54z"/>
<path d="M7001 4325 c0 -15 68 -89 75 -82 3 3 -12 25 -35 49 -22 24 -40 39
-40 33z"/>
<path d="M7172 4318 c3 -7 15 -15 27 -16 16 -3 22 1 19 10 -3 7 -15 15 -27 16
-16 3 -22 -1 -19 -10z"/>
<path d="M4620 4299 c1 -8 12 -34 25 -59 18 -34 24 -40 25 -23 0 12 -11 39
-25 59 -14 20 -25 31 -25 23z"/>
<path d="M6940 4281 c0 -12 42 -42 49 -36 5 6 -29 45 -41 45 -4 0 -8 -4 -8 -9z"/>
<path d="M3663 4267 c13 -35 18 -130 9 -178 -27 -137 -44 -270 -37 -286 6 -13
12 3 21 52 20 105 34 202 41 275 5 68 -10 150 -28 150 -6 0 -9 -6 -6 -13z"/>
<path d="M4720 4253 c1 -5 12 -21 25 -38 16 -20 25 -25 25 -14 0 8 -9 25 -20
37 -22 23 -30 27 -30 15z"/>
<path d="M4147 4235 c-63 -17 -122 -57 -142 -96 -9 -17 -15 -32 -13 -34 10
-10 83 25 89 42 8 23 27 38 57 47 20 7 22 4 22 -28 0 -41 20 -56 72 -56 42 0
71 20 66 46 -2 13 -12 19 -32 19 -16 0 -31 6 -33 13 -12 32 104 -5 141 -47 20
-22 46 -28 46 -10 0 26 -47 73 -94 95 -57 26 -106 29 -179 9z"/>
<path d="M7020 4231 c11 -22 30 -37 30 -24 -1 11 -26 43 -34 43 -4 0 -2 -9 4
-19z"/>
<path d="M3012 4201 c-14 -47 -15 -51 -2 -51 8 0 30 60 30 83 0 22 -18 2 -28
-32z"/>
<path d="M4800 4216 c0 -23 20 -69 26 -63 9 9 -6 77 -16 77 -6 0 -10 -6 -10
-14z"/>
<path d="M6960 4205 c7 -9 15 -13 17 -11 7 7 -7 26 -19 26 -6 0 -6 -6 2 -15z"/>
<path d="M2520 4191 c0 -5 4 -20 9 -33 4 -13 11 -57 15 -98 7 -75 39 -160 62
-160 11 0 -15 92 -30 107 -3 3 -6 27 -6 52 0 47 -28 141 -42 141 -4 0 -8 -4
-8 -9z"/>
<path d="M3308 4170 c-59 -31 -94 -67 -104 -107 -8 -31 2 -40 27 -25 11 7 24
10 29 7 20 -12 32 7 15 25 -15 16 -14 19 15 44 40 33 60 33 60 1 0 -50 88 -59
136 -14 l23 21 13 -21 c7 -12 18 -21 25 -21 23 0 24 21 4 54 -44 71 -145 86
-243 36z m152 -30 c0 -12 -28 -25 -36 -17 -9 9 6 27 22 27 8 0 14 -5 14 -10z"/>
<path d="M5547 4158 c-49 -85 -45 -113 9 -57 47 50 94 69 171 69 41 0 79 -6
97 -15 33 -18 36 -18 36 -5 0 25 -62 41 -143 38 -45 -2 -90 -7 -99 -12 -13 -6
-18 -4 -18 8 0 30 -28 16 -53 -26z"/>
<path d="M7011 4185 c-1 -24 15 -52 24 -43 4 3 0 19 -9 35 -13 23 -15 24 -15
8z"/>
<path d="M4641 4147 c20 -40 39 -61 39 -42 0 13 -30 62 -45 75 -13 10 -11 2 6
-33z"/>
<path d="M5260 4165 c-25 -27 -21 -47 5 -25 21 17 38 50 27 50 -5 0 -19 -11
-32 -25z"/>
<path d="M2180 4170 c0 -14 79 -98 80 -84 0 13 -62 94 -72 94 -4 0 -8 -5 -8
-10z"/>
<path d="M7168 4163 c-9 -10 -26 -38 -38 -62 -19 -38 -21 -53 -15 -126 6 -66
4 -88 -9 -113 -19 -36 -20 -42 -6 -42 5 0 17 14 26 32 13 25 15 48 11 101 -9
106 16 137 55 70 13 -22 24 -31 26 -23 7 19 -28 80 -46 80 -10 0 -12 7 -7 27
10 40 24 53 57 53 17 0 27 4 23 10 -10 16 -61 11 -77 -7z"/>
<path d="M4722 4135 c6 -14 13 -23 16 -21 7 7 -9 46 -18 46 -5 0 -4 -11 2 -25z"/>
<path d="M6404 4119 c-79 -41 -153 -119 -113 -119 7 0 31 18 55 40 50 46 71
50 83 16 12 -31 35 -38 82 -26 34 9 39 14 39 40 0 36 5 36 72 7 29 -13 59 -22
66 -20 27 10 8 30 -56 61 -90 43 -147 43 -228 1z m120 -24 c-6 -16 -44 -21
-44 -7 0 14 12 22 31 22 12 0 16 -5 13 -15z"/>
<path d="M3020 4104 c-13 -33 -13 -34 5 -34 10 0 15 10 15 30 0 37 -7 38 -20
4z"/>
<path d="M5295 4110 c-10 -11 -15 -23 -12 -27 7 -6 36 25 37 40 0 11 -6 8 -25
-13z"/>
<path d="M7030 4100 c0 -11 4 -20 9 -20 5 0 7 9 4 20 -3 11 -7 20 -9 20 -2 0
-4 -9 -4 -20z"/>
<path d="M4790 4089 c7 -11 14 -18 17 -15 8 8 -5 36 -17 36 -7 0 -7 -6 0 -21z"/>
<path d="M4720 4078 c0 -9 5 -20 10 -23 13 -8 13 5 0 25 -8 13 -10 13 -10 -2z"/>
<path d="M2200 4073 c1 -17 110 -126 110 -110 0 9 -16 35 -37 57 -36 41 -73
68 -73 53z"/>
<path d="M4640 4058 c0 -8 7 -21 15 -28 19 -16 19 -1 0 24 -12 16 -15 17 -15
4z"/>
<path d="M5321 4049 c-12 -12 -20 -24 -16 -27 3 -3 15 4 27 16 28 28 18 38
-11 11z"/>
<path d="M5700 4014 c-48 -15 -114 -70 -125 -103 -9 -30 3 -26 54 17 67 56 68
56 86 21 16 -30 19 -31 61 -26 52 5 55 7 57 36 1 17 6 21 22 16 48 -14 75 -17
75 -9 -1 20 -55 46 -113 55 -74 10 -62 11 -117 -7z m100 -28 c0 -3 -4 -8 -10
-11 -5 -3 -10 -1 -10 4 0 6 5 11 10 11 6 0 10 -2 10 -4z"/>
<path d="M3040 4000 c0 -11 5 -20 10 -20 6 0 10 9 10 20 0 11 -4 20 -10 20 -5
0 -10 -9 -10 -20z"/>
<path d="M2272 3930 c45 -53 66 -65 47 -27 -17 33 -61 77 -76 77 -8 0 5 -22
29 -50z"/>
<path d="M4640 3971 c0 -5 5 -13 10 -16 6 -3 10 -2 10 4 0 5 -4 13 -10 16 -5
3 -10 2 -10 -4z"/>
<path d="M2384 3866 c-4 -9 -3 -37 1 -62 5 -36 3 -50 -11 -65 -15 -17 -16 -24
-5 -62 7 -23 20 -50 28 -59 12 -14 13 -23 4 -49 -13 -39 -14 -69 -2 -69 14 0
22 28 31 108 8 78 32 118 73 124 24 4 36 28 13 28 -10 0 -13 6 -10 15 10 26
-14 16 -50 -19 -19 -19 -37 -32 -40 -29 -3 4 -6 37 -6 74 0 65 -13 98 -26 65z
m26 -187 c0 -11 -4 -17 -10 -14 -5 3 -10 15 -10 26 0 11 5 17 10 14 6 -3 10
-15 10 -26z"/>
<path d="M892 3854 c-33 -23 -46 -52 -31 -70 10 -13 15 -12 36 2 29 19 80 27
88 14 3 -5 18 -7 33 -4 40 8 151 -37 214 -86 69 -54 96 -89 107 -137 8 -38 8
-38 16 -10 11 41 -34 124 -96 177 -53 45 -204 117 -264 127 -22 3 -41 1 -51
-8 -12 -9 -17 -10 -23 -1 -5 9 -13 8 -29 -4z m85 -10 c-3 -3 -12 -4 -19 -1 -8
3 -5 6 6 6 11 1 17 -2 13 -5z"/>
<path d="M2284 3848 c4 -13 9 -35 12 -50 7 -33 24 -37 24 -8 0 22 -26 80 -36
80 -4 0 -3 -10 0 -22z"/>
<path d="M1875 3829 c-76 -10 -201 -50 -252 -81 -35 -21 -47 -56 -15 -43 144
60 199 75 284 75 61 0 89 -5 134 -25 32 -14 59 -23 62 -20 3 3 0 17 -7 31 -12
27 -12 27 24 -5 39 -34 45 -37 45 -20 0 11 -51 61 -88 87 -19 12 -25 13 -32 3
-6 -10 -12 -10 -28 -2 -23 12 -27 12 -127 0z"/>
<path d="M2304 3724 c5 -10 10 -28 13 -39 10 -44 13 -49 24 -38 12 12 -11 76
-32 88 -9 6 -10 3 -5 -11z"/>
<path d="M3971 3699 c-1 -9 -10 -27 -20 -40 -19 -24 -19 -24 -54 -5 -43 22
-64 19 -44 -8 8 -11 31 -20 59 -23 41 -5 48 -3 63 21 14 21 15 32 7 49 -8 16
-11 18 -11 6z"/>
<path d="M943 3683 c-63 -22 -55 -37 16 -29 53 6 61 5 70 -13 16 -28 48 -35
76 -17 31 20 59 20 75 1 19 -23 42 -19 38 8 -2 15 -18 29 -48 45 -53 26 -160
29 -227 5z"/>
<path d="M3522 3665 c2 -24 11 -34 42 -49 37 -18 40 -18 52 -2 11 16 17 16 48
5 45 -16 54 -8 25 25 -29 33 -89 37 -89 6 0 -35 -44 -19 -69 25 -10 18 -11 17
-9 -10z"/>
<path d="M1747 3664 c-51 -8 -75 -18 -98 -40 -27 -26 -38 -54 -21 -54 4 0 25
11 47 25 49 30 70 31 119 6 42 -22 78 -16 102 17 12 16 16 16 56 -6 53 -28 58
-27 58 1 0 54 -116 77 -263 51z"/>
<path d="M2300 3605 c-13 -16 -7 -45 10 -45 5 0 10 14 10 30 0 34 -3 36 -20
15z"/>
<path d="M6367 3556 c-12 -18 -33 -28 -79 -39 -46 -10 -72 -23 -95 -45 -36
-37 -64 -40 -103 -12 -16 11 -48 22 -72 24 -60 6 -77 15 -84 42 -9 36 -22 29
-15 -8 6 -29 14 -35 66 -54 33 -12 81 -30 106 -40 44 -17 46 -17 81 2 69 37
143 73 176 85 20 7 34 20 38 36 9 34 0 38 -19 9z"/>
<path d="M6475 3360 c-211 -57 -264 -65 -442 -64 -95 0 -173 -1 -173 -3 0 -13
153 -147 185 -163 101 -48 225 -34 345 38 146 88 211 159 180 197 -15 18 -7
18 -95 -5z m55 -24 c0 -62 -310 -158 -458 -143 -45 5 -62 12 -79 32 -13 14
-23 30 -23 34 0 5 60 11 133 14 123 5 236 24 362 61 65 19 65 19 65 2z m-140
-134 c0 -4 -25 -20 -56 -35 -88 -43 -242 -49 -290 -11 -17 13 -13 14 41 8 60
-6 203 14 255 35 31 12 50 13 50 3z"/>
<path d="M3422 3348 c-17 -22 -24 -57 -17 -88 8 -38 33 -39 37 -2 3 25 5 27
43 22 53 -6 84 -5 259 10 129 10 159 10 230 -4 145 -29 218 -13 168 36 l-20
20 -7 -22 c-7 -22 -10 -22 -84 -15 -107 11 -309 12 -423 1 -83 -7 -102 -6
-133 8 -24 12 -35 23 -31 32 7 17 -8 18 -22 2z"/>
<path d="M1245 3196 c-10 -18 -15 -40 -12 -49 5 -14 75 -65 141 -104 30 -18
61 -16 105 7 21 10 59 24 84 31 44 11 87 43 74 55 -3 3 -18 -1 -34 -9 -46 -26
-145 -52 -193 -52 -49 0 -101 28 -133 72 -15 19 -17 29 -8 53 14 41 -2 38 -24
-4z"/>
<path d="M3895 3203 c-27 -8 -88 -16 -134 -16 l-84 -2 54 -12 c74 -17 214 5
234 36 8 14 -7 12 -70 -6z"/>
<path d="M6275 3034 c-27 -7 -77 -14 -110 -14 -42 0 -56 -3 -45 -10 37 -24
208 -2 218 28 4 14 1 14 -63 -4z"/>
<path d="M1630 2959 c-103 -28 -108 -28 -253 -19 -81 5 -152 12 -157 15 -6 3
-10 2 -10 -4 0 -21 42 -31 174 -41 111 -7 144 -7 183 5 26 8 65 15 86 15 48 0
107 24 107 44 0 20 -3 20 -130 -15z"/>
<path d="M1550 2844 c-25 -7 -70 -14 -100 -15 l-55 -1 45 -15 c42 -14 51 -14
109 4 36 10 66 24 69 31 5 15 -11 14 -68 -4z"/>
<path d="M1636 1558 c-28 -16 -166 -317 -166 -364 0 -21 17 -34 46 -34 8 0 21
15 29 34 15 35 24 39 108 51 l47 7 0 -30 c0 -50 9 -62 46 -62 l34 0 2 130 c5
269 6 253 -22 260 -57 15 -106 18 -124 8z m54 -162 l0 -73 -37 -6 c-20 -4 -39
-4 -42 -1 -5 5 68 154 76 154 2 0 3 -33 3 -74z"/>
<path d="M524 1546 c-8 -21 15 -345 26 -366 8 -14 49 -30 80 -30 5 0 25 36 46
80 20 44 41 80 46 80 4 0 8 -17 8 -39 0 -79 9 -100 49 -111 20 -5 41 -10 46
-10 12 0 175 338 175 362 0 18 -36 48 -57 48 -13 0 -41 -49 -105 -190 l-39
-85 3 105 3 105 -35 12 c-45 15 -48 11 -100 -107 -23 -52 -46 -99 -52 -105 -6
-7 -7 24 -3 92 9 119 3 149 -28 158 -12 4 -30 9 -40 11 -9 3 -20 -1 -23 -10z"/>
<path d="M1098 1546 c-32 -7 -60 -14 -62 -17 -3 -2 -15 -78 -28 -168 l-22
-163 24 -19 c29 -22 51 -23 136 -7 66 12 74 21 51 53 -11 14 -23 17 -65 13
-45 -4 -52 -3 -52 13 0 30 27 47 85 54 58 8 65 17 45 56 -8 14 -21 19 -50 19
-44 0 -44 0 -29 52 10 40 15 42 97 52 54 5 58 10 46 44 -9 25 -14 27 -64 29
-30 1 -81 -4 -112 -11z"/>
<path d="M1934 1536 c-49 -23 -53 -27 -62 -73 -6 -26 -16 -101 -23 -166 -13
-128 -11 -137 38 -137 18 0 23 9 33 56 l12 56 41 -39 c74 -71 110 -86 147 -63
12 7 5 19 -38 61 -28 29 -52 56 -52 60 0 4 24 21 53 37 102 58 114 123 39 205
-22 23 -34 27 -81 27 -38 0 -73 -8 -107 -24z m145 -70 c8 -10 6 -19 -9 -39
-37 -47 -126 -97 -115 -65 2 7 9 32 15 56 7 29 18 46 33 52 33 13 63 12 76 -4z"/>
<path d="M2308 1546 c-32 -7 -60 -14 -62 -17 -3 -2 -15 -78 -28 -168 l-22
-163 24 -19 c29 -22 51 -23 136 -7 66 12 74 21 51 53 -11 14 -23 17 -65 13
-45 -4 -52 -3 -52 13 0 30 27 47 85 54 58 8 65 17 45 56 -8 14 -21 19 -50 19
-44 0 -44 0 -29 52 10 40 15 42 97 52 54 5 58 10 46 44 -9 25 -14 27 -64 29
-30 1 -81 -4 -112 -11z"/>
<path d="M4000 838 c-55 -38 -92 -91 -97 -142 -7 -59 8 -81 91 -135 36 -24 66
-47 66 -52 0 -21 -44 -19 -96 5 -31 14 -63 26 -71 26 -25 0 -26 -29 -2 -50 78
-67 176 -74 236 -18 37 35 30 64 -24 101 -78 53 -105 84 -98 109 13 45 65 101
80 86 3 -3 1 -25 -4 -48 -12 -53 -7 -67 32 -87 28 -14 31 -14 43 2 7 10 18 43
25 74 9 45 9 61 -2 81 -16 27 -91 70 -125 70 -11 0 -36 -10 -54 -22z"/>
<path d="M973 829 c-48 -30 -93 -104 -93 -152 0 -44 27 -76 113 -135 45 -30
54 -52 21 -52 -8 0 -41 11 -74 25 -94 39 -125 10 -45 -43 79 -52 175 -48 218
9 26 36 16 61 -42 98 -98 63 -109 94 -53 154 27 29 58 37 49 13 -3 -8 -9 -30
-12 -49 -6 -29 -3 -37 21 -56 15 -12 34 -20 42 -19 37 7 57 152 25 180 -57 50
-119 60 -170 27z"/>
<path d="M2946 838 c-28 -16 -166 -317 -166 -364 0 -21 17 -34 46 -34 8 0 21
15 29 34 15 35 24 39 108 51 l47 7 0 -30 c0 -50 9 -62 46 -62 l34 0 2 130 c5
269 6 253 -22 260 -57 15 -106 18 -124 8z m54 -162 l0 -73 -37 -6 c-20 -4 -39
-4 -42 -1 -5 5 68 154 76 154 2 0 3 -33 3 -74z"/>
<path d="M615 808 c-93 -81 -122 -256 -55 -331 24 -27 35 -31 92 -35 57 -4 67
-1 95 22 42 36 74 114 80 202 7 94 -6 127 -61 154 -63 30 -108 26 -151 -12z
m125 -107 c0 -47 -24 -133 -47 -174 -21 -35 -51 -47 -64 -25 -28 43 7 189 58
244 24 27 26 27 39 9 8 -10 14 -35 14 -54z"/>
<path d="M1201 738 c-11 -57 -26 -136 -32 -176 -10 -71 -10 -75 12 -98 25 -27
45 -29 135 -12 49 9 64 15 64 29 0 28 -26 41 -75 37 -57 -4 -57 -1 -10 162 19
67 35 123 35 126 0 9 -61 34 -83 34 -23 0 -26 -7 -46 -102z"/>
<path d="M1535 808 c-93 -81 -122 -256 -55 -331 24 -27 35 -31 92 -35 57 -4
67 -1 95 22 42 36 74 114 80 202 7 94 -6 127 -61 154 -63 30 -108 26 -151 -12z
m125 -107 c0 -47 -24 -133 -47 -174 -21 -35 -51 -47 -64 -25 -28 43 7 189 58
244 24 27 26 27 39 9 8 -10 14 -35 14 -54z"/>
<path d="M1806 831 c-14 -22 36 -320 59 -357 12 -18 73 -44 104 -44 13 0 114
206 151 309 l24 63 -25 19 c-48 38 -59 26 -123 -135 -44 -109 -62 -143 -67
-129 -4 10 -12 70 -19 132 -13 110 -24 141 -55 141 -7 0 -20 3 -28 6 -8 3 -18
1 -21 -5z"/>
<path d="M2248 826 c-32 -7 -60 -14 -62 -17 -3 -2 -15 -78 -28 -168 l-22 -163
24 -19 c29 -22 51 -23 136 -7 66 12 74 21 51 53 -11 14 -23 17 -65 13 -45 -4
-52 -3 -52 13 0 30 27 47 85 54 58 8 65 17 45 56 -8 14 -21 19 -50 19 -44 0
-44 0 -29 52 10 40 15 42 97 52 54 5 58 10 46 44 -9 25 -14 27 -64 29 -30 1
-81 -4 -112 -11z"/>
<path d="M3181 738 c-11 -57 -26 -136 -32 -176 -10 -71 -10 -75 12 -98 25 -27
45 -29 135 -12 49 9 64 15 64 29 0 28 -26 41 -75 37 -57 -4 -57 -1 -10 162 19
67 35 123 35 126 0 9 -61 34 -83 34 -23 0 -26 -7 -46 -102z"/>
<path d="M3451 738 c-11 -57 -26 -136 -32 -176 -10 -71 -10 -75 12 -98 25 -27
45 -29 135 -12 49 9 64 15 64 29 0 28 -26 41 -75 37 -57 -4 -57 -1 -10 162 19
67 35 123 35 126 0 9 -61 34 -83 34 -23 0 -26 -7 -46 -102z"/>
<path d="M4285 808 c-93 -81 -122 -256 -55 -331 24 -27 35 -31 92 -35 57 -4
67 -1 95 22 42 36 74 114 80 202 7 94 -6 127 -61 154 -63 30 -108 26 -151 -12z
m125 -107 c0 -47 -24 -133 -47 -174 -21 -35 -51 -47 -64 -25 -28 43 7 189 58
244 24 27 26 27 39 9 8 -10 14 -35 14 -54z"/>
<path d="M4571 738 c-11 -57 -26 -136 -32 -176 -10 -71 -10 -75 12 -98 25 -27
45 -29 135 -12 49 9 64 15 64 29 0 28 -26 41 -75 37 -57 -4 -57 -1 -10 162 19
67 35 123 35 126 0 9 -61 34 -83 34 -23 0 -26 -7 -46 -102z"/>
<path d="M4826 831 c-14 -22 36 -320 59 -357 12 -18 73 -44 104 -44 13 0 114
206 151 309 l24 63 -25 19 c-48 38 -59 26 -123 -135 -44 -109 -62 -143 -67
-129 -4 10 -12 70 -19 132 -13 110 -24 141 -55 141 -7 0 -20 3 -28 6 -8 3 -18
1 -21 -5z"/>
<path d="M5268 826 c-32 -7 -60 -14 -62 -17 -3 -2 -15 -78 -28 -168 l-22 -163
24 -19 c29 -22 51 -23 136 -7 66 12 74 21 51 53 -11 14 -23 17 -65 13 -45 -4
-52 -3 -52 13 0 30 27 47 85 54 58 8 65 17 45 56 -8 14 -21 19 -50 19 -44 0
-44 0 -29 52 10 40 15 42 97 52 54 5 58 10 46 44 -9 25 -14 27 -64 29 -30 1
-81 -4 -112 -11z"/>
<path d="M5472 498 c-26 -26 -6 -68 33 -68 27 0 45 18 45 46 0 32 -53 47 -78
22z"/>
<path d="M2432 448 c-16 -29 -28 -56 -25 -60 2 -5 17 -8 33 -8 20 0 37 10 59
35 17 20 31 40 31 45 0 8 -51 40 -64 40 -2 0 -17 -24 -34 -52z"/>
</g>
</svg>
